<svg width="18" height="16" viewBox="0 0 18 16" fill="none" xmlns="http://www.w3.org/2000/svg">
<path d="M15.1285 5.31861C14.5777 5.32016 14.0409 5.49204 13.5916 5.81068C13.1423 6.12932 12.8026 6.57913 12.619 7.09844H0.889913C0.653893 7.09844 0.42754 7.1922 0.260649 7.35909C0.0937584 7.52598 0 7.75233 0 7.98835C0 8.22437 0.0937584 8.45072 0.260649 8.61762C0.42754 8.78451 0.653893 8.87827 0.889913 8.87827H12.619C12.7822 9.34002 13.0694 9.74797 13.4489 10.0575C13.8285 10.367 14.2859 10.5661 14.7711 10.633C15.2563 10.7 15.7505 10.6322 16.1997 10.437C16.6489 10.2419 17.0358 9.92694 17.318 9.52665C17.6002 9.12636 17.7669 8.65615 17.7997 8.16749C17.8326 7.67883 17.7304 7.19054 17.5043 6.75607C17.2783 6.32159 16.9371 5.95768 16.518 5.70415C16.099 5.45062 15.6183 5.31724 15.1285 5.31861ZM15.1285 8.87827C14.9525 8.87827 14.7805 8.82607 14.6341 8.72829C14.4878 8.6305 14.3737 8.49152 14.3063 8.32891C14.239 8.1663 14.2214 7.98737 14.2557 7.81474C14.29 7.64211 14.3748 7.48355 14.4993 7.35909C14.6237 7.23463 14.7823 7.14988 14.9549 7.11554C15.1275 7.0812 15.3065 7.09882 15.4691 7.16618C15.6317 7.23354 15.7707 7.3476 15.8685 7.49394C15.9662 7.64029 16.0184 7.81234 16.0184 7.98835C16.0184 8.22437 15.9247 8.45072 15.7578 8.61762C15.5909 8.78451 15.3645 8.87827 15.1285 8.87827Z" fill="white"/>
<path d="M0.889913 3.53872H1.94001C2.12707 4.05411 2.46829 4.49941 2.91728 4.8141C3.36627 5.12879 3.90127 5.29761 4.44956 5.29761C4.99786 5.29761 5.53285 5.12879 5.98185 4.8141C6.43084 4.49941 6.77205 4.05411 6.95912 3.53872H16.9083C17.1444 3.53872 17.3707 3.44496 17.5376 3.27807C17.7045 3.11118 17.7983 2.88482 17.7983 2.6488C17.7983 2.41279 17.7045 2.18643 17.5376 2.01954C17.3707 1.85265 17.1444 1.75889 16.9083 1.75889H6.95912C6.77205 1.2435 6.43084 0.798196 5.98185 0.483506C5.53285 0.168816 4.99786 0 4.44956 0C3.90127 0 3.36627 0.168816 2.91728 0.483506C2.46829 0.798196 2.12707 1.2435 1.94001 1.75889H0.889913C0.653893 1.75889 0.42754 1.85265 0.260649 2.01954C0.0937584 2.18643 0 2.41279 0 2.6488C0 2.88482 0.0937584 3.11118 0.260649 3.27807C0.42754 3.44496 0.653893 3.53872 0.889913 3.53872ZM4.44956 1.75889C4.62557 1.75889 4.79763 1.81108 4.94397 1.90887C5.09032 2.00665 5.20438 2.14564 5.27174 2.30825C5.33909 2.47086 5.35671 2.64979 5.32238 2.82242C5.28804 2.99504 5.20328 3.15361 5.07883 3.27807C4.95437 3.40252 4.7958 3.48728 4.62318 3.52162C4.45055 3.55596 4.27162 3.53833 4.10901 3.47098C3.9464 3.40362 3.80741 3.28956 3.70963 3.14321C3.61184 2.99687 3.55965 2.82481 3.55965 2.6488C3.55965 2.41279 3.65341 2.18643 3.8203 2.01954C3.98719 1.85265 4.21354 1.75889 4.44956 1.75889Z" fill="white"/>
<path d="M16.9083 12.4378H10.5188C10.3317 11.9225 9.99049 11.4772 9.5415 11.1625C9.0925 10.8478 8.55751 10.679 8.00921 10.679C7.46092 10.679 6.92592 10.8478 6.47693 11.1625C6.02794 11.4772 5.68672 11.9225 5.49966 12.4378H0.889913C0.653893 12.4378 0.42754 12.5316 0.260649 12.6985C0.0937584 12.8654 0 13.0917 0 13.3278C0 13.5638 0.0937584 13.7901 0.260649 13.957C0.42754 14.1239 0.653893 14.2177 0.889913 14.2177H5.49966C5.68672 14.7331 6.02794 15.1784 6.47693 15.4931C6.92592 15.8077 7.46092 15.9766 8.00921 15.9766C8.55751 15.9766 9.0925 15.8077 9.5415 15.4931C9.99049 15.1784 10.3317 14.7331 10.5188 14.2177H16.9083C17.1444 14.2177 17.3707 14.1239 17.5376 13.957C17.7045 13.7901 17.7983 13.5638 17.7983 13.3278C17.7983 13.0917 17.7045 12.8654 17.5376 12.6985C17.3707 12.5316 17.1444 12.4378 16.9083 12.4378ZM8.00921 14.2177C7.83321 14.2177 7.66115 14.1655 7.51481 14.0677C7.36846 13.9699 7.2544 13.8309 7.18704 13.6683C7.11969 13.5057 7.10206 13.3268 7.1364 13.1541C7.17074 12.9815 7.2555 12.823 7.37995 12.6985C7.50441 12.574 7.66297 12.4893 7.8356 12.4549C8.00823 12.4206 8.18716 12.4382 8.34977 12.5056C8.51238 12.5729 8.65137 12.687 8.74915 12.8334C8.84693 12.9797 8.89913 13.1518 8.89913 13.3278C8.89913 13.5638 8.80537 13.7901 8.63848 13.957C8.47159 14.1239 8.24523 14.2177 8.00921 14.2177Z" fill="white"/>
</svg>
