<svg width="47" height="44" viewBox="0 0 47 44" fill="none" xmlns="http://www.w3.org/2000/svg">
<path d="M23.3953 8.05801V40.195M14.3023 14.4854H9.48837M15.907 20.9128H9.48837M44.7907 32.1607V6.30119C44.7907 3.73024 42.694 1.82344 40.1479 2.03769H40.0195C35.5265 2.42333 28.7014 4.71577 24.893 7.11533L24.5293 7.351C23.9088 7.73664 22.8819 7.73664 22.2614 7.351L21.7265 7.02963C17.9181 4.6515 11.1144 2.38048 6.6214 2.01626C4.07535 1.80202 2 3.73023 2 6.27977V32.1607C2 34.2175 3.66884 36.1457 5.72279 36.4028L6.34326 36.4885C10.986 37.1098 18.1535 39.4665 22.2614 41.7161L22.347 41.759C22.9247 42.0803 23.8447 42.0803 24.4009 41.759C28.5088 39.488 35.6977 37.1098 40.3619 36.4885L41.0679 36.4028C43.1219 36.1457 44.7907 34.2175 44.7907 32.1607V32.1607Z" stroke="black" stroke-width="2.5" stroke-linecap="round" stroke-linejoin="round"/>
</svg>
