<svg width="38" height="44" viewBox="0 0 38 44" fill="none" xmlns="http://www.w3.org/2000/svg">
<path d="M36.1507 42C36.1507 34.26 28.4506 28 18.9706 28C9.49065 28 1.79065 34.26 1.79065 42M18.9706 22C21.6228 22 24.1664 20.9464 26.0417 19.0711C27.9171 17.1957 28.9706 14.6522 28.9706 12C28.9706 9.34784 27.9171 6.8043 26.0417 4.92893C24.1664 3.05357 21.6228 2 18.9706 2C16.3185 2 13.7749 3.05357 11.8996 4.92893C10.0242 6.8043 8.97065 9.34784 8.97065 12C8.97065 14.6522 10.0242 17.1957 11.8996 19.0711C13.7749 20.9464 16.3185 22 18.9706 22V22Z" stroke="black" stroke-width="2.5" stroke-linecap="round" stroke-linejoin="round"/>
</svg>
